<svg id="visual" viewBox="0 0 900 600" width="900" height="600" xmlns="http://www.w3.org/2000/svg" xmlns:xlink="http://www.w3.org/1999/xlink" version="1.1"><rect x="0" y="0" width="900" height="600" fill="#001220"></rect><path d="M0 397L21.5 394.2C43 391.3 86 385.7 128.8 388.8C171.7 392 214.3 404 257.2 415.2C300 426.3 343 436.7 385.8 432C428.7 427.3 471.3 407.7 514.2 391.7C557 375.7 600 363.3 642.8 361.2C685.7 359 728.3 367 771.2 380.7C814 394.3 857 413.7 878.5 423.3L900 433L900 601L878.5 601C857 601 814 601 771.2 601C728.3 601 685.7 601 642.8 601C600 601 557 601 514.2 601C471.3 601 428.7 601 385.8 601C343 601 300 601 257.2 601C214.3 601 171.7 601 128.8 601C86 601 43 601 21.5 601L0 601Z" fill="#fa7268"></path><path d="M0 463L21.5 455C43 447 86 431 128.8 425.8C171.7 420.7 214.3 426.3 257.2 435C300 443.7 343 455.3 385.8 455.3C428.7 455.3 471.3 443.7 514.2 445.7C557 447.7 600 463.3 642.8 463.5C685.7 463.7 728.3 448.3 771.2 435.7C814 423 857 413 878.5 408L900 403L900 601L878.5 601C857 601 814 601 771.2 601C728.3 601 685.7 601 642.8 601C600 601 557 601 514.2 601C471.3 601 428.7 601 385.8 601C343 601 300 601 257.2 601C214.3 601 171.7 601 128.8 601C86 601 43 601 21.5 601L0 601Z" fill="#ef5f67"></path><path d="M0 487L21.5 489.2C43 491.3 86 495.7 128.8 492.3C171.7 489 214.3 478 257.2 476.5C300 475 343 483 385.8 485.2C428.7 487.3 471.3 483.7 514.2 482.5C557 481.3 600 482.7 642.8 475.8C685.7 469 728.3 454 771.2 454.5C814 455 857 471 878.5 479L900 487L900 601L878.5 601C857 601 814 601 771.2 601C728.3 601 685.7 601 642.8 601C600 601 557 601 514.2 601C471.3 601 428.7 601 385.8 601C343 601 300 601 257.2 601C214.3 601 171.7 601 128.8 601C86 601 43 601 21.5 601L0 601Z" fill="#e34c67"></path><path d="M0 493L21.5 500.2C43 507.3 86 521.7 128.8 524.3C171.7 527 214.3 518 257.2 513.2C300 508.3 343 507.7 385.8 512.8C428.7 518 471.3 529 514.2 529.8C557 530.7 600 521.3 642.8 516.5C685.7 511.7 728.3 511.3 771.2 514.8C814 518.3 857 525.7 878.5 529.3L900 533L900 601L878.5 601C857 601 814 601 771.2 601C728.3 601 685.7 601 642.8 601C600 601 557 601 514.2 601C471.3 601 428.7 601 385.8 601C343 601 300 601 257.2 601C214.3 601 171.7 601 128.8 601C86 601 43 601 21.5 601L0 601Z" fill="#d53867"></path><path d="M0 539L21.5 539.2C43 539.3 86 539.7 128.8 537.3C171.7 535 214.3 530 257.2 531C300 532 343 539 385.8 545.2C428.7 551.3 471.3 556.7 514.2 555.8C557 555 600 548 642.8 543.5C685.7 539 728.3 537 771.2 539.5C814 542 857 549 878.5 552.5L900 556L900 601L878.5 601C857 601 814 601 771.2 601C728.3 601 685.7 601 642.8 601C600 601 557 601 514.2 601C471.3 601 428.7 601 385.8 601C343 601 300 601 257.2 601C214.3 601 171.7 601 128.8 601C86 601 43 601 21.5 601L0 601Z" fill="#c62368"></path></svg>