<svg id="visual" viewBox="0 0 900 600" width="900" height="600" xmlns="http://www.w3.org/2000/svg" xmlns:xlink="http://www.w3.org/1999/xlink" version="1.1"><rect x="0" y="0" width="900" height="600" fill="#001220"></rect><path d="M0 445L13.7 444.2C27.3 443.3 54.7 441.7 82 428.3C109.3 415 136.7 390 163.8 385.3C191 380.7 218 396.3 245.2 407C272.3 417.7 299.7 423.3 327 415.8C354.3 408.3 381.7 387.7 409 380.8C436.3 374 463.7 381 491 400C518.3 419 545.7 450 573 462.2C600.3 474.3 627.7 467.7 654.8 447C682 426.3 709 391.7 736.2 392.7C763.3 393.7 790.7 430.3 818 443.8C845.3 457.3 872.7 447.7 886.3 442.8L900 438L900 601L886.3 601C872.7 601 845.3 601 818 601C790.7 601 763.3 601 736.2 601C709 601 682 601 654.8 601C627.7 601 600.3 601 573 601C545.7 601 518.3 601 491 601C463.7 601 436.3 601 409 601C381.7 601 354.3 601 327 601C299.7 601 272.3 601 245.2 601C218 601 191 601 163.8 601C136.7 601 109.3 601 82 601C54.7 601 27.3 601 13.7 601L0 601Z" fill="#fa7268"></path><path d="M0 506L13.7 505.2C27.3 504.3 54.7 502.7 82 501C109.3 499.3 136.7 497.7 163.8 489.7C191 481.7 218 467.3 245.2 471.5C272.3 475.7 299.7 498.3 327 506.3C354.3 514.3 381.7 507.7 409 503.8C436.3 500 463.7 499 491 496C518.3 493 545.7 488 573 485.2C600.3 482.3 627.7 481.7 654.8 484C682 486.3 709 491.7 736.2 499.2C763.3 506.7 790.7 516.3 818 519.8C845.3 523.3 872.7 520.7 886.3 519.3L900 518L900 601L886.3 601C872.7 601 845.3 601 818 601C790.7 601 763.3 601 736.2 601C709 601 682 601 654.8 601C627.7 601 600.3 601 573 601C545.7 601 518.3 601 491 601C463.7 601 436.3 601 409 601C381.7 601 354.3 601 327 601C299.7 601 272.3 601 245.2 601C218 601 191 601 163.8 601C136.7 601 109.3 601 82 601C54.7 601 27.3 601 13.7 601L0 601Z" fill="#c62368"></path></svg>